<?xml version="1.0" encoding="utf-8"?>
<!-- Generator: Adobe Illustrator 24.0.3, SVG Export Plug-In . SVG Version: 6.00 Build 0)  -->
<svg version="1.1" id="Layer_1" xmlns="http://www.w3.org/2000/svg" xmlns:xlink="http://www.w3.org/1999/xlink" x="0px" y="0px"
	 viewBox="0 0 700 700" style="enable-background:new 0 0 700 700;" xml:space="preserve">
<style type="text/css">
	.st0{fill:#FFFFFF;}
</style>
<path class="st0" d="M350,70.2c-7,0-13.6,2.8-18.6,7.7s-7.7,11.6-7.7,18.6V477L208.6,361.7c-4.9-5-11.6-7.8-18.6-7.8
	s-13.7,2.7-18.7,7.7s-7.7,11.7-7.7,18.7s2.9,13.7,7.8,18.6l159.9,159.9c0.6,0.6,1.3,1.2,1.9,1.8l0.2,0.1c0.6,0.5,1.2,1,1.9,1.4
	l0.3,0.2c0.6,0.4,1.3,0.8,1.9,1.1l0.3,0.2c0.7,0.3,1.3,0.7,2,0.9l0.2,0.1c0.7,0.3,1.4,0.5,2.2,0.8l0.2,0.1c0.7,0.2,1.5,0.4,2.3,0.6
	h0.2c0.8,0.1,1.6,0.3,2.4,0.3h0.1c0.8,0.1,1.6,0.1,2.4,0.1s1.6,0,2.4-0.1h0.1c0.8-0.1,1.6-0.2,2.4-0.3h0.2c0.8-0.2,1.5-0.3,2.3-0.6
	l0.2-0.1c0.7-0.2,1.5-0.5,2.2-0.8l0.2-0.1c0.7-0.3,1.4-0.6,2-0.9l0.3-0.2c0.7-0.4,1.3-0.7,1.9-1.1l0.3-0.2c0.7-0.4,1.3-0.9,1.9-1.4
	l0.2-0.1c0.7-0.6,1.3-1.1,1.9-1.8l159.9-159.9c5-4.9,7.8-11.6,7.8-18.6s-2.7-13.7-7.7-18.7s-11.7-7.7-18.7-7.7s-13.7,2.9-18.6,7.8
	L376.2,476.9V96.4c0-7-2.8-13.6-7.7-18.6C363.6,72.9,357,70.2,350,70.2L350,70.2z"/>
<path class="st0" d="M603.5,577.3h-507c-9.4,0-18,5-22.7,13.1s-4.7,18.1,0,26.2c4.7,8.1,13.4,13.1,22.7,13.1h507.1
	c9.4,0,18-5,22.7-13.1s4.7-18.1,0-26.2C621.6,582.3,612.9,577.3,603.5,577.3z"/>
</svg>
