<?xml version="1.0" encoding="utf-8"?>
<!-- Generator: Adobe Illustrator 24.0.3, SVG Export Plug-In . SVG Version: 6.00 Build 0)  -->
<svg version="1.1" id="Layer_1" xmlns="http://www.w3.org/2000/svg" xmlns:xlink="http://www.w3.org/1999/xlink" x="0px" y="0px"
	 viewBox="0 0 700 700" style="enable-background:new 0 0 700 700;" xml:space="preserve">
<style type="text/css">
	.st0{fill:#000000;}
</style>
<path class="st0" d="M622.3,77.7c-4.9-4.9-11.6-7.7-18.6-7.7s-13.7,2.8-18.6,7.7L350,312.8L114.8,77.7c-6.6-6.6-16.3-9.2-25.4-6.8
	c-9.1,2.4-16.2,9.5-18.6,18.6c-2.4,9.1,0.2,18.8,6.8,25.4L312.8,350L77.6,585.2c-6.6,6.6-9.2,16.3-6.8,25.4
	c2.4,9.1,9.5,16.2,18.6,18.6c9.1,2.4,18.8-0.2,25.4-6.8L350,387.2l235.2,235.2c6.6,6.6,16.3,9.2,25.4,6.8
	c9.1-2.4,16.2-9.5,18.6-18.6c2.4-9.1-0.2-18.8-6.8-25.4L387.2,350l235.2-235.2c4.9-4.9,7.7-11.6,7.7-18.6S627.3,82.6,622.3,77.7
	L622.3,77.7z"/>
</svg>
