<?xml version="1.0" encoding="utf-8"?>
<!-- Generator: Adobe Illustrator 24.0.3, SVG Export Plug-In . SVG Version: 6.00 Build 0)  -->
<svg version="1.1" id="Layer_1" xmlns="http://www.w3.org/2000/svg" xmlns:xlink="http://www.w3.org/1999/xlink" x="0px" y="0px"
	 viewBox="0 0 700 700" style="enable-background:new 0 0 700 700;" xml:space="preserve">
<style type="text/css">
	.st0{fill:#FFFFFF;}
</style>
<path class="st0" d="M603.7,323.7h-444l138-138.1c5-4.9,7.8-11.6,7.8-18.6s-2.7-13.7-7.7-18.7c-4.9-4.9-11.7-7.7-18.7-7.7
	s-13.7,2.8-18.6,7.8l-182.9,183l-0.9,0.9l-0.2,0.2c-0.2,0.2-0.4,0.5-0.7,0.7l0,0c-0.1,0.1-0.1,0.1-0.2,0.2c-0.2,0.3-0.4,0.5-0.6,0.8
	l-0.1,0.1c-0.2,0.3-0.4,0.6-0.6,0.9c-2.4,3.6-3.8,7.7-4.3,11.9c0,0.1,0,0.1,0,0.2c0,0.4-0.1,0.7-0.1,1.1s0,0.9,0,1.3v1.3
	c0,0.4,0,0.7,0.1,1.1c0,0.1,0,0.1,0,0.2c0.4,4.3,1.9,8.4,4.3,12c0.2,0.3,0.4,0.6,0.6,0.9l0.1,0.1c0.2,0.3,0.4,0.5,0.6,0.8
	c0.1,0.1,0.1,0.1,0.2,0.2c0.2,0.2,0.4,0.5,0.7,0.7l0.2,0.2l0.9,1L260.5,551c4.9,5,11.6,7.8,18.6,7.8s13.7-2.7,18.7-7.7
	c4.9-4.9,7.7-11.7,7.7-18.7s-2.9-13.7-7.8-18.6L159.6,376.3h444.1c9.4,0,18-5,22.7-13.1s4.7-18.1,0-26.2
	C621.8,328.8,613.1,323.8,603.7,323.7L603.7,323.7z"/>
</svg>
